<mxfile host="Electron" agent="Mozilla/5.0 (X11; Linux x86_64) AppleWebKit/537.36 (KHTML, like Gecko) draw.io/24.7.17 Chrome/128.0.6613.36 Electron/32.0.1 Safari/537.36" version="24.7.17">
  <diagram id="C5RBs43oDa-KdzZeNtuy" name="Process Flow Template">
    <mxGraphModel dx="1037" dy="696" grid="1" gridSize="10" guides="1" tooltips="1" connect="1" arrows="1" fold="1" page="1" pageScale="1" pageWidth="827" pageHeight="1169" math="0" shadow="0">
      <root>
        <mxCell id="WIyWlLk6GJQsqaUBKTNV-0" />
        <mxCell id="WIyWlLk6GJQsqaUBKTNV-1" parent="WIyWlLk6GJQsqaUBKTNV-0" />
        <mxCell id="zBQX_O0EGmvplDyRu0AK-1" value="Legend" style="shape=ext;double=1;whiteSpace=wrap;html=1;fillColor=#f5f5f5;strokeColor=#666666;fontColor=#333333;verticalAlign=top;fontStyle=2;movable=0;resizable=0;rotatable=0;deletable=0;editable=0;locked=1;connectable=0;" parent="WIyWlLk6GJQsqaUBKTNV-1" vertex="1">
          <mxGeometry y="120" width="200" height="480" as="geometry" />
        </mxCell>
        <mxCell id="zBQX_O0EGmvplDyRu0AK-0" value="Process Step" style="rounded=1;whiteSpace=wrap;html=1;fontSize=12;glass=0;strokeWidth=1;shadow=0;fillColor=#E3F7FC;strokeColor=#6c8ebf;movable=0;resizable=0;rotatable=0;deletable=0;editable=0;locked=1;connectable=0;" parent="WIyWlLk6GJQsqaUBKTNV-1" vertex="1">
          <mxGeometry x="40" y="220" width="120" height="40" as="geometry" />
        </mxCell>
        <mxCell id="T3NzUBIbKI7HTiR7ruJw-0" value="Document" style="shape=document;whiteSpace=wrap;html=1;boundedLbl=1;fillColor=#bac8d3;strokeColor=#23445d;movable=0;resizable=0;rotatable=0;deletable=0;editable=0;locked=1;connectable=0;" vertex="1" parent="WIyWlLk6GJQsqaUBKTNV-1">
          <mxGeometry x="50" y="420" width="100" height="60" as="geometry" />
        </mxCell>
        <mxCell id="T3NzUBIbKI7HTiR7ruJw-1" value="Start" style="html=1;dashed=0;whiteSpace=wrap;shape=mxgraph.dfd.start;fontStyle=3;fillColor=#d5e8d4;strokeColor=#000000;movable=0;resizable=0;rotatable=0;deletable=0;editable=0;locked=1;connectable=0;" vertex="1" parent="WIyWlLk6GJQsqaUBKTNV-1">
          <mxGeometry x="40" y="160" width="120" height="40" as="geometry" />
        </mxCell>
        <mxCell id="T3NzUBIbKI7HTiR7ruJw-2" value="End" style="html=1;dashed=0;whiteSpace=wrap;shape=mxgraph.dfd.start;fontStyle=3;fillColor=#E8CEC8;strokeColor=default;movable=0;resizable=0;rotatable=0;deletable=0;editable=0;locked=1;connectable=0;" vertex="1" parent="WIyWlLk6GJQsqaUBKTNV-1">
          <mxGeometry x="40" y="545" width="120" height="40" as="geometry" />
        </mxCell>
        <mxCell id="T3NzUBIbKI7HTiR7ruJw-12" style="edgeStyle=orthogonalEdgeStyle;rounded=0;orthogonalLoop=1;jettySize=auto;html=1;exitX=1;exitY=0.5;exitDx=0;exitDy=0;exitPerimeter=0;entryX=0;entryY=0.5;entryDx=0;entryDy=0;" edge="1" parent="WIyWlLk6GJQsqaUBKTNV-1" source="T3NzUBIbKI7HTiR7ruJw-5" target="T3NzUBIbKI7HTiR7ruJw-7">
          <mxGeometry relative="1" as="geometry" />
        </mxCell>
        <mxCell id="T3NzUBIbKI7HTiR7ruJw-5" value="Wake Up" style="html=1;dashed=0;whiteSpace=wrap;shape=mxgraph.dfd.start;fontStyle=3;fillColor=#d5e8d4;strokeColor=#000000;movable=1;resizable=1;rotatable=1;deletable=1;editable=1;locked=0;connectable=1;" vertex="1" parent="WIyWlLk6GJQsqaUBKTNV-1">
          <mxGeometry x="240" y="320" width="120" height="40" as="geometry" />
        </mxCell>
        <mxCell id="T3NzUBIbKI7HTiR7ruJw-10" style="edgeStyle=orthogonalEdgeStyle;rounded=0;orthogonalLoop=1;jettySize=auto;html=1;exitX=0.5;exitY=1;exitDx=0;exitDy=0;entryX=0;entryY=0.5;entryDx=0;entryDy=0;" edge="1" parent="WIyWlLk6GJQsqaUBKTNV-1" source="T3NzUBIbKI7HTiR7ruJw-7" target="T3NzUBIbKI7HTiR7ruJw-17">
          <mxGeometry relative="1" as="geometry">
            <mxPoint x="440" y="520" as="targetPoint" />
            <Array as="points">
              <mxPoint x="440" y="420" />
            </Array>
          </mxGeometry>
        </mxCell>
        <mxCell id="T3NzUBIbKI7HTiR7ruJw-11" value="Yes" style="edgeLabel;html=1;align=center;verticalAlign=middle;resizable=0;points=[];" vertex="1" connectable="0" parent="T3NzUBIbKI7HTiR7ruJw-10">
          <mxGeometry x="-0.1" relative="1" as="geometry">
            <mxPoint as="offset" />
          </mxGeometry>
        </mxCell>
        <mxCell id="T3NzUBIbKI7HTiR7ruJw-35" style="edgeStyle=orthogonalEdgeStyle;rounded=0;orthogonalLoop=1;jettySize=auto;html=1;exitX=1;exitY=0.5;exitDx=0;exitDy=0;" edge="1" parent="WIyWlLk6GJQsqaUBKTNV-1" source="T3NzUBIbKI7HTiR7ruJw-7" target="T3NzUBIbKI7HTiR7ruJw-14">
          <mxGeometry relative="1" as="geometry" />
        </mxCell>
        <mxCell id="T3NzUBIbKI7HTiR7ruJw-37" value="No" style="edgeLabel;html=1;align=center;verticalAlign=middle;resizable=0;points=[];" vertex="1" connectable="0" parent="T3NzUBIbKI7HTiR7ruJw-35">
          <mxGeometry x="-0.6454" y="2" relative="1" as="geometry">
            <mxPoint as="offset" />
          </mxGeometry>
        </mxCell>
        <mxCell id="T3NzUBIbKI7HTiR7ruJw-7" value="Need Caffeine?" style="rhombus;whiteSpace=wrap;html=1;shadow=0;fontFamily=Helvetica;fontSize=12;align=center;strokeWidth=1;spacing=6;spacingTop=-4;fillColor=#fff2cc;strokeColor=#d6b656;movable=1;resizable=1;rotatable=1;deletable=1;editable=1;locked=0;connectable=1;" vertex="1" parent="WIyWlLk6GJQsqaUBKTNV-1">
          <mxGeometry x="400" y="300" width="80" height="80" as="geometry" />
        </mxCell>
        <mxCell id="T3NzUBIbKI7HTiR7ruJw-9" value="Decision?" style="rhombus;whiteSpace=wrap;html=1;shadow=0;fontFamily=Helvetica;fontSize=12;align=center;strokeWidth=1;spacing=6;spacingTop=-4;fillColor=#fff2cc;strokeColor=#d6b656;movable=0;resizable=0;rotatable=0;deletable=0;editable=0;locked=1;connectable=0;" vertex="1" parent="WIyWlLk6GJQsqaUBKTNV-1">
          <mxGeometry x="60" y="270" width="80" height="80" as="geometry" />
        </mxCell>
        <mxCell id="T3NzUBIbKI7HTiR7ruJw-14" value="Turn On Computer" style="rounded=1;whiteSpace=wrap;html=1;fontSize=12;glass=0;strokeWidth=1;shadow=0;fillColor=#E3F7FC;strokeColor=#6c8ebf;movable=1;resizable=1;rotatable=1;deletable=1;editable=1;locked=0;connectable=1;" vertex="1" parent="WIyWlLk6GJQsqaUBKTNV-1">
          <mxGeometry x="760" y="400.21000000000004" width="120" height="40" as="geometry" />
        </mxCell>
        <mxCell id="T3NzUBIbKI7HTiR7ruJw-29" value="" style="edgeStyle=orthogonalEdgeStyle;rounded=0;orthogonalLoop=1;jettySize=auto;html=1;" edge="1" parent="WIyWlLk6GJQsqaUBKTNV-1" source="T3NzUBIbKI7HTiR7ruJw-17" target="T3NzUBIbKI7HTiR7ruJw-20">
          <mxGeometry relative="1" as="geometry" />
        </mxCell>
        <mxCell id="T3NzUBIbKI7HTiR7ruJw-17" value="Start Coffee Machine" style="shape=parallelogram;perimeter=parallelogramPerimeter;html=1;dashed=0;fillColor=#d0cee2;strokeColor=#56517e;movable=1;resizable=1;rotatable=1;deletable=1;editable=1;locked=0;connectable=1;fontStyle=2;fontSize=10;whiteSpace=wrap;" vertex="1" parent="WIyWlLk6GJQsqaUBKTNV-1">
          <mxGeometry x="480" y="400.21" width="120" height="40" as="geometry" />
        </mxCell>
        <mxCell id="T3NzUBIbKI7HTiR7ruJw-18" value="Standard Input" style="shape=parallelogram;perimeter=parallelogramPerimeter;whiteSpace=wrap;html=1;dashed=0;fillColor=#d0cee2;strokeColor=#56517e;movable=0;resizable=0;rotatable=0;deletable=0;editable=0;locked=1;connectable=0;fontStyle=2" vertex="1" parent="WIyWlLk6GJQsqaUBKTNV-1">
          <mxGeometry x="40" y="360" width="120" height="40" as="geometry" />
        </mxCell>
        <mxCell id="T3NzUBIbKI7HTiR7ruJw-36" style="edgeStyle=orthogonalEdgeStyle;rounded=0;orthogonalLoop=1;jettySize=auto;html=1;exitX=1;exitY=0.5;exitDx=0;exitDy=0;entryX=0;entryY=0.5;entryDx=0;entryDy=0;" edge="1" parent="WIyWlLk6GJQsqaUBKTNV-1" source="T3NzUBIbKI7HTiR7ruJw-20" target="T3NzUBIbKI7HTiR7ruJw-14">
          <mxGeometry relative="1" as="geometry" />
        </mxCell>
        <mxCell id="T3NzUBIbKI7HTiR7ruJw-20" value="Wait For Coffee" style="shape=delay;whiteSpace=wrap;html=1;fillColor=#fad7ac;strokeColor=#b46504;" vertex="1" parent="WIyWlLk6GJQsqaUBKTNV-1">
          <mxGeometry x="640" y="400.21" width="80" height="40" as="geometry" />
        </mxCell>
        <mxCell id="T3NzUBIbKI7HTiR7ruJw-21" value="Delay" style="shape=delay;whiteSpace=wrap;html=1;fillColor=#fad7ac;strokeColor=#b46504;movable=0;resizable=0;rotatable=0;deletable=0;editable=0;locked=1;connectable=0;" vertex="1" parent="WIyWlLk6GJQsqaUBKTNV-1">
          <mxGeometry x="60" y="490" width="80" height="40" as="geometry" />
        </mxCell>
        <mxCell id="T3NzUBIbKI7HTiR7ruJw-38" value="Work Day Begins" style="html=1;dashed=0;whiteSpace=wrap;shape=mxgraph.dfd.start;fontStyle=3;fillColor=#E8CEC8;strokeColor=default;movable=1;resizable=1;rotatable=1;deletable=1;editable=1;locked=0;connectable=1;" vertex="1" parent="WIyWlLk6GJQsqaUBKTNV-1">
          <mxGeometry x="920" y="400.21" width="120" height="40" as="geometry" />
        </mxCell>
        <mxCell id="T3NzUBIbKI7HTiR7ruJw-39" style="edgeStyle=orthogonalEdgeStyle;rounded=0;orthogonalLoop=1;jettySize=auto;html=1;exitX=1;exitY=0.5;exitDx=0;exitDy=0;entryX=0;entryY=0.5;entryDx=0;entryDy=0;entryPerimeter=0;" edge="1" parent="WIyWlLk6GJQsqaUBKTNV-1" source="T3NzUBIbKI7HTiR7ruJw-14" target="T3NzUBIbKI7HTiR7ruJw-38">
          <mxGeometry relative="1" as="geometry" />
        </mxCell>
      </root>
    </mxGraphModel>
  </diagram>
</mxfile>
